<svg enable-background="new 0 0 52.2 44.3" viewBox="0 0 52.2 44.3" xmlns="http://www.w3.org/2000/svg"><path d="m19.2 41.6c-18.3 2.8-11.3-11-11.3-11 1.5-2.8 3.2-5.4 5.2-7.8-.7-1.7-1-3.5-1-5.3 0-8 6.4-14.5 14.4-14.6 3.2 0 6.4 1.1 9 3 3.2-1.5 6.6-2.8 10.1-3.7-20.7 9.1-29.1 19.4-32.6 24-11.2 17 5.3 15.5 6.2 15.4z" fill="#5830e0"/><path d="m37.1 33.1s-7.6.9-14-1.5l-.8-.2c1.3-3.6 5.9-14.8 16.6-21.6 4.3 6.8 2.2 15.7-4.6 20-.2.1-.4.2-.6.3.9 1.3 2 2.3 3.4 3z" fill="#081828"/><path d="m19 39s-9.5-6.5 13.6-27.2c0 .1-26.9 21.8-13.6 27.2z" fill="#5830e0"/></svg>